<?xml version="1.0" encoding="us-ascii" standalone="no"?><svg xmlns="http://www.w3.org/2000/svg" xmlns:xlink="http://www.w3.org/1999/xlink" contentStyleType="text/css" height="1046px" preserveAspectRatio="none" style="width:1369px;height:1046px;background:#FFFFFF;" version="1.1" viewBox="0 0 1369 1046" width="1369px" zoomAndPan="magnify"><defs/><g><rect fill="#FFFFFF" height="29.1328" style="stroke:#181818;stroke-width:1.0;" width="10" x="408.5" y="112.4297"/><rect fill="#FFFFFF" height="616.2578" style="stroke:#181818;stroke-width:1.0;" width="10" x="408.5" y="170.6953"/><rect fill="#FFFFFF" height="121.5313" style="stroke:#181818;stroke-width:1.0;" width="10" x="413.5" y="261.0938"/><rect fill="#FFFFFF" height="139.5313" style="stroke:#181818;stroke-width:1.0;" width="10" x="408.5" y="816.0859"/><rect fill="#FFFFFF" height="29.1328" style="stroke:#181818;stroke-width:1.0;" width="10" x="1110" y="324.3594"/><rect fill="none" height="175.7969" style="stroke:#000000;stroke-width:1.5;" width="992" x="371" y="214.8281"/><rect fill="none" height="354.1953" style="stroke:#000000;stroke-width:1.5;" width="323" x="371" y="404.625"/><rect fill="none" height="59.2656" style="stroke:#000000;stroke-width:1.5;" width="336.5" x="82" y="889.3516"/><line style="stroke:#181818;stroke-width:0.5;stroke-dasharray:5.0,5.0;" x1="43" x2="43" y1="81.2969" y2="965.6172"/><line style="stroke:#181818;stroke-width:0.5;stroke-dasharray:5.0,5.0;" x1="116" x2="116" y1="81.2969" y2="965.6172"/><line style="stroke:#181818;stroke-width:0.5;stroke-dasharray:5.0,5.0;" x1="413" x2="413" y1="81.2969" y2="965.6172"/><line style="stroke:#181818;stroke-width:0.5;stroke-dasharray:5.0,5.0;" x1="991.5" x2="991.5" y1="81.2969" y2="965.6172"/><line style="stroke:#181818;stroke-width:0.5;stroke-dasharray:5.0,5.0;" x1="1114.5" x2="1114.5" y1="81.2969" y2="965.6172"/><line style="stroke:#181818;stroke-width:0.5;stroke-dasharray:5.0,5.0;" x1="1291" x2="1291" y1="81.2969" y2="965.6172"/><text fill="#000000" font-family="sans-serif" font-size="14" lengthAdjust="spacing" textLength="71" x="5" y="77.9951">Pengguna</text><ellipse cx="43.5" cy="13.5" fill="#E2E2F0" rx="8" ry="8" style="stroke:#181818;stroke-width:0.5;"/><path d="M43.5,21.5 L43.5,48.5 M30.5,29.5 L56.5,29.5 M43.5,48.5 L30.5,63.5 M43.5,48.5 L56.5,63.5 " fill="none" style="stroke:#181818;stroke-width:0.5;"/><text fill="#000000" font-family="sans-serif" font-size="14" lengthAdjust="spacing" textLength="71" x="5" y="977.6123">Pengguna</text><ellipse cx="43.5" cy="989.4141" fill="#E2E2F0" rx="8" ry="8" style="stroke:#181818;stroke-width:0.5;"/><path d="M43.5,997.4141 L43.5,1024.4141 M30.5,1005.4141 L56.5,1005.4141 M43.5,1024.4141 L30.5,1039.4141 M43.5,1024.4141 L56.5,1039.4141 " fill="none" style="stroke:#181818;stroke-width:0.5;"/><text fill="#000000" font-family="sans-serif" font-size="14" lengthAdjust="spacing" textLength="43" x="92" y="77.9951">Admin</text><ellipse cx="116.5" cy="13.5" fill="#E2E2F0" rx="8" ry="8" style="stroke:#181818;stroke-width:0.5;"/><path d="M116.5,21.5 L116.5,48.5 M103.5,29.5 L129.5,29.5 M116.5,48.5 L103.5,63.5 M116.5,48.5 L129.5,63.5 " fill="none" style="stroke:#181818;stroke-width:0.5;"/><text fill="#000000" font-family="sans-serif" font-size="14" lengthAdjust="spacing" textLength="43" x="92" y="977.6123">Admin</text><ellipse cx="116.5" cy="989.4141" fill="#E2E2F0" rx="8" ry="8" style="stroke:#181818;stroke-width:0.5;"/><path d="M116.5,997.4141 L116.5,1024.4141 M103.5,1005.4141 L129.5,1005.4141 M116.5,1024.4141 L103.5,1039.4141 M116.5,1024.4141 L129.5,1039.4141 " fill="none" style="stroke:#181818;stroke-width:0.5;"/><rect fill="#E2E2F0" height="30.2969" rx="2.5" ry="2.5" style="stroke:#181818;stroke-width:0.5;" width="65" x="381" y="50"/><text fill="#000000" font-family="sans-serif" font-size="14" lengthAdjust="spacing" textLength="51" x="388" y="69.9951">System</text><rect fill="#E2E2F0" height="30.2969" rx="2.5" ry="2.5" style="stroke:#181818;stroke-width:0.5;" width="65" x="381" y="964.6172"/><text fill="#000000" font-family="sans-serif" font-size="14" lengthAdjust="spacing" textLength="51" x="388" y="984.6123">System</text><text fill="#000000" font-family="sans-serif" font-size="14" lengthAdjust="spacing" textLength="66" x="955.5" y="77.9951">Database</text><path d="M973.5,29 C973.5,19 991.5,19 991.5,19 C991.5,19 1009.5,19 1009.5,29 L1009.5,55 C1009.5,65 991.5,65 991.5,65 C991.5,65 973.5,65 973.5,55 L973.5,29 " fill="#E2E2F0" style="stroke:#181818;stroke-width:1.5;"/><path d="M973.5,29 C973.5,39 991.5,39 991.5,39 C991.5,39 1009.5,39 1009.5,29 " fill="none" style="stroke:#181818;stroke-width:1.5;"/><text fill="#000000" font-family="sans-serif" font-size="14" lengthAdjust="spacing" textLength="66" x="955.5" y="977.6123">Database</text><path d="M973.5,990.9141 C973.5,980.9141 991.5,980.9141 991.5,980.9141 C991.5,980.9141 1009.5,980.9141 1009.5,990.9141 L1009.5,1016.9141 C1009.5,1026.9141 991.5,1026.9141 991.5,1026.9141 C991.5,1026.9141 973.5,1026.9141 973.5,1016.9141 L973.5,990.9141 " fill="#E2E2F0" style="stroke:#181818;stroke-width:1.5;"/><path d="M973.5,990.9141 C973.5,1000.9141 991.5,1000.9141 991.5,1000.9141 C991.5,1000.9141 1009.5,1000.9141 1009.5,990.9141 " fill="none" style="stroke:#181818;stroke-width:1.5;"/><rect fill="#E2E2F0" height="30.2969" rx="2.5" ry="2.5" style="stroke:#181818;stroke-width:0.5;" width="155" x="1037.5" y="50"/><text fill="#000000" font-family="sans-serif" font-size="14" lengthAdjust="spacing" textLength="141" x="1044.5" y="69.9951">Blockchain_Contract</text><rect fill="#E2E2F0" height="30.2969" rx="2.5" ry="2.5" style="stroke:#181818;stroke-width:0.5;" width="155" x="1037.5" y="964.6172"/><text fill="#000000" font-family="sans-serif" font-size="14" lengthAdjust="spacing" textLength="141" x="1044.5" y="984.6123">Blockchain_Contract</text><text fill="#000000" font-family="sans-serif" font-size="14" lengthAdjust="spacing" textLength="118" x="1229" y="77.9951">Blockchain_State</text><path d="M1273,29 C1273,19 1291,19 1291,19 C1291,19 1309,19 1309,29 L1309,55 C1309,65 1291,65 1291,65 C1291,65 1273,65 1273,55 L1273,29 " fill="#E2E2F0" style="stroke:#181818;stroke-width:1.5;"/><path d="M1273,29 C1273,39 1291,39 1291,39 C1291,39 1309,39 1309,29 " fill="none" style="stroke:#181818;stroke-width:1.5;"/><text fill="#000000" font-family="sans-serif" font-size="14" lengthAdjust="spacing" textLength="118" x="1229" y="977.6123">Blockchain_State</text><path d="M1273,990.9141 C1273,980.9141 1291,980.9141 1291,980.9141 C1291,980.9141 1309,980.9141 1309,990.9141 L1309,1016.9141 C1309,1026.9141 1291,1026.9141 1291,1026.9141 C1291,1026.9141 1273,1026.9141 1273,1016.9141 L1273,990.9141 " fill="#E2E2F0" style="stroke:#181818;stroke-width:1.5;"/><path d="M1273,990.9141 C1273,1000.9141 1291,1000.9141 1291,1000.9141 C1291,1000.9141 1309,1000.9141 1309,990.9141 " fill="none" style="stroke:#181818;stroke-width:1.5;"/><rect fill="#FFFFFF" height="29.1328" style="stroke:#181818;stroke-width:1.0;" width="10" x="408.5" y="112.4297"/><rect fill="#FFFFFF" height="616.2578" style="stroke:#181818;stroke-width:1.0;" width="10" x="408.5" y="170.6953"/><rect fill="#FFFFFF" height="121.5313" style="stroke:#181818;stroke-width:1.0;" width="10" x="413.5" y="261.0938"/><rect fill="#FFFFFF" height="139.5313" style="stroke:#181818;stroke-width:1.0;" width="10" x="408.5" y="816.0859"/><rect fill="#FFFFFF" height="29.1328" style="stroke:#181818;stroke-width:1.0;" width="10" x="1110" y="324.3594"/><polygon fill="#181818" points="396.5,108.4297,406.5,112.4297,396.5,116.4297,400.5,112.4297" style="stroke:#181818;stroke-width:1.0;"/><line style="stroke:#181818;stroke-width:1.0;" x1="43.5" x2="402.5" y1="112.4297" y2="112.4297"/><text fill="#000000" font-family="sans-serif" font-size="13" lengthAdjust="spacing" textLength="141" x="50.5" y="107.3638">Menggunakan aplikasi</text><polygon fill="#181818" points="979.5,137.5625,989.5,141.5625,979.5,145.5625,983.5,141.5625" style="stroke:#181818;stroke-width:1.0;"/><line style="stroke:#181818;stroke-width:1.0;" x1="413.5" x2="985.5" y1="141.5625" y2="141.5625"/><text fill="#000000" font-family="sans-serif" font-size="13" lengthAdjust="spacing" textLength="219" x="420.5" y="136.4966">membaca dan mengubah isi tabel</text><polygon fill="#181818" points="396.5,166.6953,406.5,170.6953,396.5,174.6953,400.5,170.6953" style="stroke:#181818;stroke-width:1.0;"/><line style="stroke:#181818;stroke-width:1.0;" x1="116.5" x2="402.5" y1="170.6953" y2="170.6953"/><text fill="#000000" font-family="sans-serif" font-size="13" lengthAdjust="spacing" textLength="107" x="123.5" y="165.6294">sinkronisasi data</text><polygon fill="#181818" points="979.5,195.8281,989.5,199.8281,979.5,203.8281,983.5,199.8281" style="stroke:#181818;stroke-width:1.0;"/><line style="stroke:#181818;stroke-width:1.0;" x1="418.5" x2="985.5" y1="199.8281" y2="199.8281"/><text fill="#000000" font-family="sans-serif" font-size="13" lengthAdjust="spacing" textLength="63" x="425.5" y="194.7622">membuat</text><text fill="#000000" font-family="monospace" font-size="13" lengthAdjust="spacing" textLength="128" x="492.5" y="194.7622">blockchain_syncs</text><path d="M371,214.8281 L651,214.8281 L651,221.9609 L641,231.9609 L371,231.9609 L371,214.8281 " fill="#EEEEEE" style="stroke:#000000;stroke-width:1.5;"/><rect fill="none" height="175.7969" style="stroke:#000000;stroke-width:1.5;" width="992" x="371" y="214.8281"/><text fill="#000000" font-family="sans-serif" font-size="13" font-weight="bold" lengthAdjust="spacing" textLength="235" x="386" y="227.895">contoh sinkronisasi satu entitas</text><line style="stroke:#181818;stroke-width:1.0;" x1="418.5" x2="465.5" y1="248.0938" y2="248.0938"/><line style="stroke:#181818;stroke-width:1.0;" x1="465.5" x2="465.5" y1="248.0938" y2="261.0938"/><line style="stroke:#181818;stroke-width:1.0;" x1="424.5" x2="465.5" y1="261.0938" y2="261.0938"/><polygon fill="#181818" points="434.5,257.0938,424.5,261.0938,434.5,265.0938,430.5,261.0938" style="stroke:#181818;stroke-width:1.0;"/><text fill="#000000" font-family="sans-serif" font-size="13" lengthAdjust="spacing" textLength="128" x="430.5" y="243.0278">sinkronisasi fakultas</text><polygon fill="#181818" points="979.5,291.2266,989.5,295.2266,979.5,299.2266,983.5,295.2266" style="stroke:#181818;stroke-width:1.0;"/><line style="stroke:#181818;stroke-width:1.0;" x1="423.5" x2="985.5" y1="295.2266" y2="295.2266"/><text fill="#000000" font-family="sans-serif" font-size="13" lengthAdjust="spacing" textLength="194" x="430.5" y="290.1606">mencari perubahan baru tabel</text><text fill="#000000" font-family="monospace" font-size="13" lengthAdjust="spacing" textLength="72" x="628.5" y="290.1606">faculties</text><text fill="#000000" font-family="sans-serif" font-size="13" lengthAdjust="spacing" textLength="138" x="704.5" y="290.1606">sejak tanggal terkahir</text><text fill="#000000" font-family="monospace" font-size="13" lengthAdjust="spacing" textLength="128" x="846.5" y="290.1606">blockchain_syncs</text><polygon fill="#181818" points="1098,320.3594,1108,324.3594,1098,328.3594,1102,324.3594" style="stroke:#181818;stroke-width:1.0;"/><line style="stroke:#181818;stroke-width:1.0;" x1="423.5" x2="1104" y1="324.3594" y2="324.3594"/><text fill="#000000" font-family="sans-serif" font-size="13" lengthAdjust="spacing" textLength="72" x="430.5" y="319.2935">memanggil</text><text fill="#000000" font-family="monospace" font-size="13" lengthAdjust="spacing" textLength="272" x="506.5" y="319.2935">MasterData:insertFaculty(id,&#160;nama)</text><polygon fill="#181818" points="1279,349.4922,1289,353.4922,1279,357.4922,1283,353.4922" style="stroke:#181818;stroke-width:1.0;"/><line style="stroke:#181818;stroke-width:1.0;" x1="1115" x2="1285" y1="353.4922" y2="353.4922"/><text fill="#000000" font-family="sans-serif" font-size="13" lengthAdjust="spacing" textLength="87" x="1122" y="348.4263">menulis state</text><text fill="#000000" font-family="monospace" font-size="13" lengthAdjust="spacing" textLength="56" x="1213" y="348.4263">Faculty</text><polygon fill="#181818" points="979.5,378.625,989.5,382.625,979.5,386.625,983.5,382.625" style="stroke:#181818;stroke-width:1.0;"/><line style="stroke:#181818;stroke-width:1.0;" x1="418.5" x2="985.5" y1="382.625" y2="382.625"/><text fill="#000000" font-family="sans-serif" font-size="13" lengthAdjust="spacing" textLength="63" x="425.5" y="377.5591">membuat</text><text fill="#000000" font-family="monospace" font-size="13" lengthAdjust="spacing" textLength="160" x="492.5" y="377.5591">blockhain_sync_items</text><path d="M371,404.625 L689,404.625 L689,411.7578 L679,421.7578 L371,421.7578 L371,404.625 " fill="#EEEEEE" style="stroke:#000000;stroke-width:1.5;"/><rect fill="none" height="354.1953" style="stroke:#000000;stroke-width:1.5;" width="323" x="371" y="404.625"/><text fill="#000000" font-family="sans-serif" font-size="13" font-weight="bold" lengthAdjust="spacing" textLength="273" x="386" y="417.6919">entitas lainnya (sama seperti diatas)</text><line style="stroke:#181818;stroke-width:1.0;" x1="418.5" x2="460.5" y1="442.8906" y2="442.8906"/><line style="stroke:#181818;stroke-width:1.0;" x1="460.5" x2="460.5" y1="442.8906" y2="455.8906"/><line style="stroke:#181818;stroke-width:1.0;" x1="419.5" x2="460.5" y1="455.8906" y2="455.8906"/><polygon fill="#181818" points="429.5,451.8906,419.5,455.8906,429.5,459.8906,425.5,455.8906" style="stroke:#181818;stroke-width:1.0;"/><text fill="#000000" font-family="sans-serif" font-size="13" lengthAdjust="spacing" textLength="93" x="425.5" y="437.8247">program_studi</text><line style="stroke:#181818;stroke-width:1.0;" x1="418.5" x2="460.5" y1="485.0234" y2="485.0234"/><line style="stroke:#181818;stroke-width:1.0;" x1="460.5" x2="460.5" y1="485.0234" y2="498.0234"/><line style="stroke:#181818;stroke-width:1.0;" x1="419.5" x2="460.5" y1="498.0234" y2="498.0234"/><polygon fill="#181818" points="429.5,494.0234,419.5,498.0234,429.5,502.0234,425.5,498.0234" style="stroke:#181818;stroke-width:1.0;"/><text fill="#000000" font-family="sans-serif" font-size="13" lengthAdjust="spacing" textLength="78" x="425.5" y="479.9575">mata_kuliah</text><line style="stroke:#181818;stroke-width:1.0;" x1="418.5" x2="460.5" y1="527.1563" y2="527.1563"/><line style="stroke:#181818;stroke-width:1.0;" x1="460.5" x2="460.5" y1="527.1563" y2="540.1563"/><line style="stroke:#181818;stroke-width:1.0;" x1="419.5" x2="460.5" y1="540.1563" y2="540.1563"/><polygon fill="#181818" points="429.5,536.1563,419.5,540.1563,429.5,544.1563,425.5,540.1563" style="stroke:#181818;stroke-width:1.0;"/><text fill="#000000" font-family="sans-serif" font-size="13" lengthAdjust="spacing" textLength="39" x="425.5" y="522.0903">dosen</text><line style="stroke:#181818;stroke-width:1.0;" x1="418.5" x2="460.5" y1="569.2891" y2="569.2891"/><line style="stroke:#181818;stroke-width:1.0;" x1="460.5" x2="460.5" y1="569.2891" y2="582.2891"/><line style="stroke:#181818;stroke-width:1.0;" x1="419.5" x2="460.5" y1="582.2891" y2="582.2891"/><polygon fill="#181818" points="429.5,578.2891,419.5,582.2891,429.5,586.2891,425.5,582.2891" style="stroke:#181818;stroke-width:1.0;"/><text fill="#000000" font-family="sans-serif" font-size="13" lengthAdjust="spacing" textLength="71" x="425.5" y="564.2231">mahasiswa</text><line style="stroke:#181818;stroke-width:1.0;" x1="418.5" x2="460.5" y1="611.4219" y2="611.4219"/><line style="stroke:#181818;stroke-width:1.0;" x1="460.5" x2="460.5" y1="611.4219" y2="624.4219"/><line style="stroke:#181818;stroke-width:1.0;" x1="419.5" x2="460.5" y1="624.4219" y2="624.4219"/><polygon fill="#181818" points="429.5,620.4219,419.5,624.4219,429.5,628.4219,425.5,624.4219" style="stroke:#181818;stroke-width:1.0;"/><text fill="#000000" font-family="sans-serif" font-size="13" lengthAdjust="spacing" textLength="162" x="425.5" y="606.356">sinkronisasi tahun_ajaran</text><line style="stroke:#181818;stroke-width:1.0;" x1="418.5" x2="460.5" y1="653.5547" y2="653.5547"/><line style="stroke:#181818;stroke-width:1.0;" x1="460.5" x2="460.5" y1="653.5547" y2="666.5547"/><line style="stroke:#181818;stroke-width:1.0;" x1="419.5" x2="460.5" y1="666.5547" y2="666.5547"/><polygon fill="#181818" points="429.5,662.5547,419.5,666.5547,429.5,670.5547,425.5,666.5547" style="stroke:#181818;stroke-width:1.0;"/><text fill="#000000" font-family="sans-serif" font-size="13" lengthAdjust="spacing" textLength="19" x="425.5" y="648.4888">krs</text><line style="stroke:#181818;stroke-width:1.0;" x1="418.5" x2="460.5" y1="695.6875" y2="695.6875"/><line style="stroke:#181818;stroke-width:1.0;" x1="460.5" x2="460.5" y1="695.6875" y2="708.6875"/><line style="stroke:#181818;stroke-width:1.0;" x1="419.5" x2="460.5" y1="708.6875" y2="708.6875"/><polygon fill="#181818" points="429.5,704.6875,419.5,708.6875,429.5,712.6875,425.5,708.6875" style="stroke:#181818;stroke-width:1.0;"/><text fill="#000000" font-family="sans-serif" font-size="13" lengthAdjust="spacing" textLength="22" x="425.5" y="690.6216">khs</text><line style="stroke:#181818;stroke-width:1.0;" x1="418.5" x2="460.5" y1="737.8203" y2="737.8203"/><line style="stroke:#181818;stroke-width:1.0;" x1="460.5" x2="460.5" y1="737.8203" y2="750.8203"/><line style="stroke:#181818;stroke-width:1.0;" x1="419.5" x2="460.5" y1="750.8203" y2="750.8203"/><polygon fill="#181818" points="429.5,746.8203,419.5,750.8203,429.5,754.8203,425.5,750.8203" style="stroke:#181818;stroke-width:1.0;"/><text fill="#000000" font-family="sans-serif" font-size="13" lengthAdjust="spacing" textLength="60" x="425.5" y="732.7544">kelulusan</text><polygon fill="#181818" points="979.5,782.9531,989.5,786.9531,979.5,790.9531,983.5,786.9531" style="stroke:#181818;stroke-width:1.0;"/><line style="stroke:#181818;stroke-width:1.0;" x1="413.5" x2="985.5" y1="786.9531" y2="786.9531"/><text fill="#000000" font-family="sans-serif" font-size="13" lengthAdjust="spacing" textLength="82" x="420.5" y="781.8872">mengupdate</text><text fill="#000000" font-family="monospace" font-size="13" lengthAdjust="spacing" textLength="128" x="506.5" y="781.8872">blockchain_syncs</text><polygon fill="#181818" points="396.5,812.0859,406.5,816.0859,396.5,820.0859,400.5,816.0859" style="stroke:#181818;stroke-width:1.0;"/><line style="stroke:#181818;stroke-width:1.0;" x1="116.5" x2="402.5" y1="816.0859" y2="816.0859"/><text fill="#000000" font-family="sans-serif" font-size="13" lengthAdjust="spacing" textLength="178" x="123.5" y="811.02">mengecek hasil sinkronisasi</text><polygon fill="#181818" points="979.5,841.2188,989.5,845.2188,979.5,849.2188,983.5,845.2188" style="stroke:#181818;stroke-width:1.0;"/><line style="stroke:#181818;stroke-width:1.0;" x1="418.5" x2="985.5" y1="845.2188" y2="845.2188"/><text fill="#000000" font-family="sans-serif" font-size="13" lengthAdjust="spacing" textLength="65" x="425.5" y="840.1528">membaca</text><text fill="#000000" font-family="monospace" font-size="13" lengthAdjust="spacing" textLength="128" x="494.5" y="840.1528">blockchain_syncs</text><polygon fill="#181818" points="979.5,870.3516,989.5,874.3516,979.5,878.3516,983.5,874.3516" style="stroke:#181818;stroke-width:1.0;"/><line style="stroke:#181818;stroke-width:1.0;" x1="418.5" x2="985.5" y1="874.3516" y2="874.3516"/><text fill="#000000" font-family="sans-serif" font-size="13" lengthAdjust="spacing" textLength="65" x="425.5" y="869.2856">membaca</text><text fill="#000000" font-family="monospace" font-size="13" lengthAdjust="spacing" textLength="168" x="494.5" y="869.2856">blockchain_sync_items</text><path d="M82,889.3516 L146,889.3516 L146,896.4844 L136,906.4844 L82,906.4844 L82,889.3516 " fill="#EEEEEE" style="stroke:#000000;stroke-width:1.5;"/><rect fill="none" height="59.2656" style="stroke:#000000;stroke-width:1.5;" width="336.5" x="82" y="889.3516"/><text fill="#000000" font-family="sans-serif" font-size="13" font-weight="bold" lengthAdjust="spacing" textLength="19" x="97" y="902.4185">alt</text><text fill="#000000" font-family="sans-serif" font-size="11" font-weight="bold" lengthAdjust="spacing" textLength="215" x="161" y="901.562">[terdapat data yang tidak sesuai]</text><line style="stroke:#181818;stroke-width:1.0;" x1="116.5" x2="158.5" y1="927.6172" y2="927.6172"/><line style="stroke:#181818;stroke-width:1.0;" x1="158.5" x2="158.5" y1="927.6172" y2="940.6172"/><line style="stroke:#181818;stroke-width:1.0;" x1="117.5" x2="158.5" y1="940.6172" y2="940.6172"/><polygon fill="#181818" points="127.5,936.6172,117.5,940.6172,127.5,944.6172,123.5,940.6172" style="stroke:#181818;stroke-width:1.0;"/><text fill="#000000" font-family="sans-serif" font-size="13" lengthAdjust="spacing" textLength="283" x="123.5" y="922.5513">melakukan verifikasi dan rekonsiliasi manual</text><!--SRC=[XLJBZjim3BpxAuYSTe7s1t8eq0TwMs21_O1WR2anrx9iYD8M_lkIZlDmkaaD6BOi3Zd3eOmc3ucErwkFXqE9M9OGAk9JXQkGxwxdUDc7wwiHANF38sAcjqcoxy_RCadba553FFqwlPnsNRt2_WX3qpKjEEv-3Z4dBJk7jM5_IN8Lz9QHBydQuAhAwDBNRrPtIo-BcWwHC0Rk86nQ-CDmHarlYtRrbdhVrsX0JeDx1POQBR4mQLqVAkTNm4frd-i8nouDaKNpan5zMAGWqsPJNsJ851lPRAhga8OoKgFIXtQTL90B-PWvGsil2V-jlKTNWeNShnyR9ARH9zEdKckaSfIefFPe5CzUsP3uTtIweor4eEnJXvRJvyoN2khJBD4mRFbUeCEGpFOjHtKc_vuBJ4_ilb14ZsS5dxcQpNeVCxcPR0ciCpJRlDaiO8LScM6W-mq-izonJgMieREFFhgbxqjxAIWcJg0dKOBQ1krLLbjPLSZpglTZ6Wu9_KvoSRpQwJLufrumsjLtDuYFDv6jEYT_SD_LZBR47TwHiCPsITRhzcRjGmb556KgR-RWK4PtxEjde_Xet0ti6z-HCGyhhlyzNO_6vs7SsK24RDFeCAhDTjXeqdcZp4x7LRmKy8cjFYnZq5DXlu0FdtW__mJcGvvyDqGLmFP1PxOW7Fjqg_ql]--></g></svg>